<?xml version="1.0" encoding="utf-8"?>
<!-- Generator: Adobe Illustrator 20.1.0, SVG Export Plug-In . SVG Version: 6.00 Build 0)  -->
<svg version="1.1" id="Layer_2" xmlns="http://www.w3.org/2000/svg" xmlns:xlink="http://www.w3.org/1999/xlink" x="0px" y="0px"
	 viewBox="0 0 34 34" style="enable-background:new 0 0 34 34;" xml:space="preserve">
<style type="text/css">
	.st0{fill:none;stroke:#FF0000;stroke-width:2;stroke-miterlimit:10;}
	.st1{fill:#FFFFFF;stroke:#000000;stroke-width:2;stroke-miterlimit:10;}
	.st2{fill:none;stroke:#000000;stroke-width:2;stroke-linecap:round;stroke-miterlimit:10;}
</style>
<path class="st0" d="M-1309.3-302l386,223l-259,146l-382-221L-1309.3-302z M-1126.3,867l203-118l-539-310 M-1234.3,867l-330-193
	l-155-89 M-1719.3,173v412l257-146V24 M-1719.3,173l155,89l256-149l-155-89L-1719.3,173z M-1564.3-154v828l256-146.9V-302
	 M-1436.3,8.5l153.5,88.5l256-146.5l-153.5-89.5L-1436.3,8.5z M-1284,510.8l257.2-147.4 M-1308.3,585l307,177l152-86.5L-1155.4,500
	L-1308.3,585z M-1308.3,585v282 M-1333,570.6l153.7-87l-154.5-88.5l-153,88.5L-1333,570.6z M-1486.3,484v383 M-1333.3,867V571
	l-0.4-175.9 M-1436.3,9v413l537,313l259-150l-538.9-309l-257.1,146 M-1180.3-139V867 M-923.3-79v828 M-1284,867l-49.7-27l-47.6,27
	 M-352.3-253l-133-79l-414,236l-385-220v827 M-640.3,585v-828.6L-1026.8-464l-257.5,148 M-1027.3-464V867 M-1155.4,80l154.1,90
	l256-146l-154-90L-1155.4,80z M-1155.3,80v787 M-1051.3,114l50,29l25-14.5l-51-31.5L-1051.3,114z M-1051.3,867V114 M-352.3-231
	l-624,360v738 M-721.3,867l-176-100l-177,100 M-1026.8,155.1l25.5-12.1 M-1001.3,867V170v-56l-26,13.9 M-1001.3,114l649-376
	 M-899.3-96l2,863 M-352.3,538l-137,78l28,15l26-15v-948l-436,253v828l194.5,118 M-352.3,749l-259.5-147l-259.5,147 M-745.3,825.5
	l260.6-151.4 M-846.3,675.5L-589.5,527l-155.8-88l-256,149.3 M-976.3,363.4L-512.6,97L-821.9-79l-24.3,13v933 M-871.3-79l152,88
	l256-148l-152.6-88.2 M-352.3,508.5L-488.8,585l53.5,31 M-352.3-25l-494,285l24.3,14.8 M-512.6,97l160.3-92 M-361.3-673l-485,281
	l154,90l340-199 M-846.3-422l179,105.4 M-846.3-452L-641-332 M-846.3-673v341 M-1001.3-673v458 M-1051.3-673v428l50,30l183-105
	l-28-12l-180.5,101.7V-262l-0.5-411 M-1051.3-245l24.5-17l50.5,31v-442 M-691.3-599l-127-74V867l49-27V-673l78,43 M-818.3,304.5
	l24.5,13.5l-24.5,16.1l-28-14.2l52.5-28.9l24.5,13l-24.5,14l-1.6-991 M-744.3-673v131.7L-1001.9-392l25.6,14l258.2-148 M-691.3-673
	V350l51-28l24,13l-51,28.4V-673l152.2,89.1 M-352.3,806l-111,61V-673l-228,131l-155-88 M-512.6,867l-2.5-1540l-203,115.8
	 M-846.3-659l155,86.5 M-691.5-658.9l-26.8-14v356l284.6-165.2 M-846.3-598l155,87 M-846.3-572.4l307.8,180.5 M-352.3-444
	l-162.8,94.7 M-846.3-542l361,210l133-78 M-744.3-541v209l281-163 M-795.3-332l309-179 M-512.6-525.5l-282.7,163.4 M-822.3-378
	l283.8-163 M-374.9-665.1l22.6,15.1 M-352.3-520l-264.3-153l1.6,1540 M-450.1-621.5l97.8,59.6 M-352.3-607.5l-61.7-35 M-563.1-556
	l151.8,89.1V-673 M-641-673l0.7,429.4 M-590.3-673v192 M-563.3-673v206 M-538.3-673v191 M-486.3-673l-2.5,1540 M-526.1-577.5
	l153.9,88.2 M-590.3-542l154.3,90 M-615.3-525.8l152,88.8 M-640.3-511l151.5,89 M-665.1-497l151.9,90.2 M-846.3-511l256,148.8
	 M-846.3-481.4l231,134.4 M-488.8-364.6l53.5,32.6 M-463.3-139l111,65 M-539.3,867l0.8-990.6l-51.6-31.2l-26.5,15.8l53,29.9
	 M-818.3-48.3l49-30.7l152.7,88l-178.7,105l155,87.5l151.5-87.5l-23.8-17 M-352.3,190l-111-65.1l-152,90.1l263,157 M-590.1-154.8
	l0.5,1021.8 M-564.6-139l2.3,1006 M-766.3,867l21.8-13.2l-0.8-858 M-719.3,9l-2,831l263.5-150.7 M-640.3,141.2l288,167.8
	 M-486.3,230.9l-27.3,17.5l161.3,90.6 M-352.3,518l-315-183.9 M-435.3,260.7l-285,163.9l155.7,86.5l212.3-121 M-487.8,260.7
	l24.5-12.2 M-691.3,350l339,198 M-463.3,483.2l-24.2,16.8l24.2,11l28-11"/>
<g>
	<circle class="st1" cx="-41" cy="16" r="16"/>
	<path class="st2" d="M-49,11h16 M-49,16h16 M-49,21h16"/>
</g>
<g>
	<circle class="st1" cx="17" cy="17" r="16"/>
	<path class="st2" d="M11.4,22.6l11.3-11.3 M11.3,11.4l11.3,11.3"/>
</g>
</svg>
