<?xml version="1.0" encoding="utf-8"?>
<!-- Generator: Adobe Illustrator 20.1.0, SVG Export Plug-In . SVG Version: 6.00 Build 0)  -->
<svg version="1.1" id="Layer_2" xmlns="http://www.w3.org/2000/svg" xmlns:xlink="http://www.w3.org/1999/xlink" x="0px" y="0px"
	 viewBox="0 0 2039 1540" style="enable-background:new 0 0 2039 1540;" xml:space="preserve">
<style type="text/css">
	.st0{fill:none;stroke:#FF0000;stroke-width:2;stroke-miterlimit:10;}
</style>
<path class="st0" d="M1082,371l386,223l-259,146L827,519L1082,371z M1265,1540l203-118l-539-310 M1157,1540l-330-193l-155-89
	 M672,846v412l257-146V697 M672,846l155,89l256-149l-155-89L672,846z M827,519v828l256-146.9V371 M955,681.5l153.5,88.5l256-146.5
	L1211,534L955,681.5z M1107.3,1183.8l257.2-147.4 M1083,1258l307,177l152-86.5L1235.9,1173L1083,1258z M1083,1258v282
	 M1058.3,1243.6l153.7-87l-154.5-88.5l-153,88.5L1058.3,1243.6z M905,1157v383 M1058,1540v-296l-0.4-175.9 M955,682v413l537,313
	l259-150l-538.9-309L955,1095 M1211,534v1006 M1468,594v828 M1107.3,1540l-49.7-27l-47.6,27 M2039,420l-133-79l-414,236l-385-220
	v827 M1751,1258V429.4L1364.5,209L1107,357 M1364,209v1331 M1235.9,753l154.1,90l256-146l-154-90L1235.9,753z M1236,753v787
	 M1340,787l50,29l25-14.5l-51-31.5L1340,787z M1340,1540V787 M2039,442l-624,360v738 M1670,1540l-176-100l-177,100 M1364.5,828.1
	L1390,816 M1390,1540V843v-56l-26,13.9 M1390,787l649-376 M1492,577l2,863 M2039,1211l-137,78l28,15l26-15V341l-436,253v828
	l194.5,118 M2039,1422l-259.5-147L1520,1422 M1646,1498.4l260.6-151.4 M1545,1348.5l256.8-148.5l-155.8-88l-256,149.3 M1415,1036.4
	L1878.7,770l-309.3-176l-24.3,13v933 M1520,594l152,88l256-148l-152.6-88.2 M2039,1181.5l-136.5,76.5l53.5,31 M2039,648l-494,285
	l24.3,14.8 M1878.7,770l160.3-92 M2030,0l-485,281l154,90l340-199 M1545,251l179,105.4 M1545,221l205.3,120 M1545,0v341 M1390,0v458
	 M1340,0v428l50,30l183-105l-28-12l-180.5,101.7l0-31.7L1364,0 M1340,428l24.5-17l50.5,31V0 M1700,74L1573,0v1540l49-27V0l78,43
	 M1573,977.5l24.5,13.5l-24.5,16.1l-28-14.2l52.5-28.9l24.5,13l-24.5,14l-1.6-991 M1647,0v131.7L1389.4,281l25.6,14l258.2-148
	 M1700,0v1023l51-28l24,13l-51,28.4V0l152.2,89.1 M2039,1479l-111,61V0l-228,131l-155-88 M1878.7,1540L1876.2,0l-203,115.8 M1545,14
	l155,86.5 M1699.8,14L1673,0v356l284.6-165.2 M1545,75l155,87 M1545,100.5L1852.8,281 M2039,229l-162.8,94.7 M1545,131l361,210
	l133-78 M1647,132v209l281-163 M1596,341l309-179 M1878.7,147.5L1596,310.8 M1569,295l283.8-163 M2016.4,7.9L2039,23 M2039,153
	L1774.7,0l1.6,1540 M1941.2,51.4L2039,111 M2039,65.5l-61.7-35 M1828.2,116.9L1980,206V0 M1750.3,0l0.7,429.4 M1801,0v192 M1828,0
	v206 M1853,0v191 M1905,0l-2.5,1540 M1865.2,95.5l153.9,88.2 M1801,131l154.3,90 M1776,147.2l152,88.8 M1751,162l151.5,89
	 M1726.2,176l151.9,90.1 M1545,162l256,148.8 M1545,191.6L1776,326 M1902.5,308.4L1956,341 M1928,534l111,65 M1852,1540l0.8-990.6
	l-51.6-31.2l-26.5,15.8l53,29.9 M1573,624.7l49-30.7l152.7,88L1596,787l155,87.5l151.5-87.5l-23.8-17 M2039,863l-111-65.1L1776,888
	l263,157 M1801.2,518.2l0.5,1021.8 M1826.7,534l2.3,1006 M1625,1540l21.8-13.2l-0.8-858.1 M1672,682l-2,831l263.5-150.7 M1751,814.2
	L2039,982 M1905,903.9l-27.3,17.5L2039,1012 M2039,1191l-315-183.9 M1956,933.6l-285,163.9l155.7,86.5l212.3-121 M1903.5,933.6
	l24.5-12.2 M1700,1023l339,198 M1928,1156.2l-24.2,16.8l24.2,11l28-11"/>
</svg>
