<svg id="Layer_1" data-name="Layer 1" xmlns="http://www.w3.org/2000/svg" viewBox="0 0 1256.96 1530.9"><defs><style>.cls-1{fill:none;stroke:red;stroke-miterlimit:10;}</style></defs><title>line-drawing-2</title><path class="cls-1" d="M927.8,1543.24l-352-200,288-24-32,116,78-4,59-247-120,15,13-51-244,32,330-998,421-169m1,915-14,85-209-212L1118.37,920.7,945.8,951.24l30-114,13-4-125,486h19l-59,224m545-1005L1278.74,562l-34.94,9.22,5-21,35-9,86,108m0-542-91,455,90,113m-424,245-246,46-123,377m794-765-164-212-205,68L769.39,1239.77,1006.72,1212l-37.92-27.78m400-403-279-327m-89-20,44,48-183,666,508-69m-995-165,377,258,558-72-345-327-590,141-261,629m934,0,56-269m-128-437,98.29,91.3,131.71-562.3m164,0-280,88-101,379,158-32m97-230,126,154m-325-243,325,368m-1013,408,373-45m218-1031,301,368m107,463-160,27m91,503,83-536m-45,536,44-303m-994,303,82-229m242-348,377,286,293-28m-310,319,85.35-421.63L944.8,951.24m-63,592,18-68-68-40m-79,108,96-344-119,14,97,65-370,36-100-56-111,285m506-371-110,371m668-443-74,443m-139,0,99-503-121.71-111.7L942.8,1500.24l-43-25,12-44,458-23m-487-87,342,222m-208,0-74-43m310,43-404-268,227-23,28,22,227-22-386-332L837.27,1321.45,617.8,1180.24" transform="translate(-113.34 -12.78)"/></svg>