<?xml version="1.0" encoding="utf-8"?>
<!-- Generator: Adobe Illustrator 21.0.2, SVG Export Plug-In . SVG Version: 6.00 Build 0)  -->
<svg version="1.1" id="Layer_1" xmlns="http://www.w3.org/2000/svg" xmlns:xlink="http://www.w3.org/1999/xlink" x="0px" y="0px"
	 viewBox="0 0 1369.6 1543.4" style="enable-background:new 0 0 1369.6 1543.4;" xml:space="preserve">
<style type="text/css">
	.st0{display:none;fill:none;stroke:#FF0000;stroke-miterlimit:10;}
	.st1{fill:#FFFFFF;stroke:#000000;stroke-miterlimit:10;}
</style>
<image style="display:none;overflow:visible;" width="2048" height="2048" xlink:href="../../../Desktop/line.drawing.2.jpg"  transform="matrix(-0.856 0 0 0.856 -919.7011 3.7449)">
</image>
<path class="st0" d="M-1511.2,700.2l-114,166l-140-194l-120,166l18,28l236.5-333.7l374.5-528.3 M-1265.2,4.2l94,137l-138,194
	l390,552 M-1352.2,4.2l-96,137l19,26l120-163 M-1609.6,502.8l117.4,166.4l236-336l-132-195l97-134 M-1076.2,4.2l157,224
	 M-1066.2,4.2l147,209 M-919.2,198.2c0,0-136-194-138-194 M-1427.2,167.2l508,4l-119-167 M-1026.2,4.2l107,151 M-919.2,25.2
	l-61.2,86 M-1448.2,140.2l477.4-0.4l51.6-71.6 M-919.2,85.2h-42.7l19.2,26.2 M-919.2,79.2l-42.7,58.3l42.7,2.7 M-923.2,111.4
	l-17.3,27.4 M-2170.2,1119.2h784l178-253h-659 M-919.2,1007.2h-735l-101.4,142.9l-118.3,166.8l-160.4,226.2 M-2289.2,1286.2l181,257
	 M-919.2,947.2l-307-446h-507l196,282h618 M-919.2,771.2l-88-126l-117,165l205,287 M-919.2,336.2h-303l-115.2,165l187.7,282
	l123.6-172.6l107-149.4 M-919.2,308.2H-1290 M-1452.1,280.6l172.9-0.3l19-28l-40-58c0,0-90-1-90.9,0.4 M-1430.4,250l170.2,0.2
	 M-1409.8,221h128.1 M-1300.2,194.2l-17.2,26.7l35.2,56.3 M-1279.2,224.7c0,0-18,19.6-19.8,25.6 M-919.2,610.2h-107l-196-274h-396
	c0,0-240,336-235,333s934,0,934,0 M-919.2,1076.2l-249,349l82,118 M-1643.2,1543.2l82-117h631l-115-167l126-179 M-919.2,501.2
	l-270.6,3 M-1226.2,501.2l18-23h-511.1 M-1870.2,1543.2l-81.6-116.3l390.6,0.3l102-141h-27l-118,167l653,1l-117.8-168
	 M-1168.2,1425.2l-13.5,28.6l57.5,89.4 M-1544.2,1543.2l-60-90 M-1477.2,1543.2l-84-118 M-1427.2,1543.2c8-12,61.5-89.6,61.5-89.6
	l-120.5-167.4 M-919.2,122.2l-406.9,574.5l-0.8,1.2l-119.3,168.4l-21-29l101.2-139.3l20.8-28.7l19.1,27.5l0.8,1.1l117.1,168.4
	l119-169l-236.1,0.6l-1.6,0l-39.1,0.1l-506.2,1.3l-298.1,419.6l-118.9,167.4h394l118-167l21.6,30.9l174.4,249.1l-102,144
	 M-1717.2,1543.2l-156.7-226.2l-21.3-30.8l-75,111l-103.1,146 M-1346.7,1426.2 M-919.2,951.2h-737l258-365l20,29l-258,361l197,282
	l257-364h263 M-1853.2,669.2l197,278 M-1872.2,699.2l199,279h754 M-1910.6,753.2h295.4l138-194l-300,0.5 M-2170.2,1119.2l195,279
	h786l-197-279 M-1656.2,1007.2l197,279h540 M-1673.2,978.2l-104,141 M-919.2,922.2h-310l-235,336l117,168l237-335l-119-169
	 M-919.2,812.2l-600,0.3l42,53.7l156.8,223.7l239,2.3l-16.3,27l18.5,27l35-56l-138-196 M-919.2,838.2h-966 M-919.2,529.2l-836.6,0.3
	l197.8,282.7 M-998.2,4.2l79,107l-508.1,0.2l294.1,419.8l-19.4,25.6l233.4,2.4 M-950,504.3l30.8,42 M-919.2,605.2l-50.6-73.3
	 M-919.2,642.2h-518.6l17.1,25.8 M-919.2,586.2h-476 M-919.2,616.2l-500.2,0 M-919.2,1019.2l-270,379 M-919.2,1258.2h-545
	 M-1537.6,838.2l196.5,281h278.9l-556-783 M-919.2,1064.2l-143,0.4l-19.2,27.6l162.2,0 M-919.2,1119.2h-143 M-919.2,1146.2h-162
	 M-1733.2,894.1l269,0.1l-22-28l19-29 M-1446.2,866.2l-18,28 M-1615.2,753.2l-41-55.3l21.5-29.8l36,59.7h-293.7 M-1477.2,559.2
	l-18-30l-138.9,198.5"/>
<image style="display:none;overflow:visible;" width="2048" height="2048" xlink:href="../../../Desktop/line.drawing.3.jpg"  transform="matrix(-0.7534 0 0 -0.7534 1369.3002 1543.7501)">
</image>
<path class="st1" d="M1032.8,4.2 M873.8,1544.2l-28-692l-268,460l103,232 M553.8,1543.2l-29-300c0,0-515,31-525,31 M503.8,1544.2
	l-198-175l277-30l-133-120l-19-10l-109,149l-322-84 M1369.8,1382.2l-232-245l-182-102l414,383 M1369.8,170.2l-461,294l439-318
	l-33,600l55-234 M1369.8,161.2l-22-15l-383-146l164.8,304.1 M1337.4,334.8l-433.2-81.4l465.5,492.8 M1369.8,224.2l-421,305l421,305
	 M437.8,1542.2L328,1253l-11.2,11.2l-126,278 M398.8,1544.2l140.8-147.4l10.2,2.4l21,144l-0.4-215.2l-248.6,30.2l6-103l-130,289
	 M565.8,1544.2l1-201l-271,30l-62,141l-18-10.1l-10.9,9 M305.8,1369.2l16-11l-42.7,5.2l-12.3,11 M1369.8,1191.2l-461-727l-63-70
	l524,832 M898.8,0.2l9.3,433.5l0.7,30.5l60,528l340-21l-66,48l-333,27l-563-133l609,122l-110-641l50-67l413,644 M1320.6,639.9
	L908.8,464.2l461,336 M1369.8,771.2l-524-377l63,652l461-414 M1369.8,679.2l-61,48.1l9.3,35.2l4.7,37.7 M1041.8,1543.2l95-406
	l-287-68l-116,473 M790.8,1544.2l76.4-163.5l-289.4-68.5l-39-51l275,31L506.3,1220l-484.5,96.3l-22-42 M1011.8,1543.2l-9-193
	l-136,32 M1002.8,1350.2l-94,193 M1369.8,794.2l-127,225l-135-35.1l262,333.1 M955.8,1035.2l-47,11 M927.8,0.2l12.6,513.8
	l429.4-311.8 M922.8,0.2L1332,434.1 M1369.8,130.2l-22,16l22,88 M1351.3,146.2l18.5-8 M908.8,0.2l-4.5,253.2l422.1,282 M903.8,253.2
	c0,0,34,257,37,261 M895.8,327.2c-3,4,13,137,13,137 M228.8,707.2l-181,276l66-2l-114,293 M-0.2,1274.2l48-291l355-233l-174-43
	l-115,274l341,1L496,1261l81.8-327.7l-227,90l80,186l24-225l-52-234 M147.8,1041.2l227.8,39.7 M350.8,1023.2l-301-39l381,225
	 M233.8,1514.2l212-294 M420.8,1543.2l-106-279 M535.8,1543.2l-214-185l-106,146 M408.8,1543.2l141-144 M538.8,1261.2l-32.5-41.3
	l39.5,323.3 M582.8,1544.2l-5-232 M566.8,1341v-12.5l-17,16.6v198.1 M561.8,1543.2L543,1397.6"/>
</svg>
